<svg xmlns="http://www.w3.org/2000/svg" width="48" height="54" fill="none" viewBox="0 0 48 54">
  <path fill="#fff" fill-rule="evenodd" d="M47.787 16c0-.9-.193-1.695-.582-2.377-.382-.671-.954-1.234-1.721-1.679-2.715-1.566-5.43-3.13-8.146-4.695h-.002v-.001c-3.62-2.086-7.24-4.171-10.858-6.262-1.707-.986-3.362-.95-5.057.05-1.517.896-6.696 3.876-11.398 6.581a3618.86 3618.86 0 0 0-7.507 4.325C.967 12.84.214 14.213.213 15.998v11.026c0 3.676 0 7.351-.002 11.026 0 .88.184 1.66.556 2.332.382.692.962 1.27 1.747 1.724 1.49.864 4.37 2.52 7.461 4.299h.001c4.715 2.712 9.922 5.708 11.444 6.607 1.696 1.001 3.35 1.037 5.058.05 3.674-2.123 7.352-4.24 11.029-6.359l.003-.002.006-.004.006-.003.006-.003c2.653-1.528 5.306-3.057 7.958-4.587.785-.454 1.365-1.033 1.747-1.724.371-.672.556-1.451.556-2.332 0 0 0-14.697-.002-22.048Zm-8.35 2.167c-3.059-5.286-8.77-8.842-15.313-8.842-9.767 0-17.685 7.925-17.685 17.7 0 3.206.852 6.213 2.342 8.807 3.052 5.314 8.78 8.892 15.343 8.892l.197-.002c6.466-.07 12.1-3.615 15.126-8.856L31.76 31.41l.023-.04.014-.024-.037.064a8.799 8.799 0 0 1-15.282-.013 8.777 8.777 0 0 1-1.161-4.373c0-4.867 3.943-8.813 8.806-8.813h.1a8.8 8.8 0 0 1 7.486 4.34l7.698-4.435.03.05Zm-1.643 6.276v-2.51H36.54v2.51h-2.508v1.255h2.508v2.51h-2.508v1.255h2.508v2.51h1.254v-2.51h2.509v2.51h1.254v-2.51h2.508v-1.255h-2.508v-2.51h2.508v-1.255h-2.508v-2.51h-1.254v2.51h-2.509Zm0 1.255h2.509v2.51h-2.509v-2.51Z" clip-rule="evenodd"/>
</svg>
