<svg xmlns="http://www.w3.org/2000/svg" width="46" height="48" fill="none" viewBox="0 0 46 48">
  <path fill="#fff" d="M.9 30.4C.3 28.3 0 26.2 0 24 0 14.2 6.2 5.2 15.4 1.6l1.2 3.1C8.7 7.8 3.3 15.5 3.3 24c0 1.9.2 3.7.7 5.5l-3.1.9Z"/>
  <path fill="url(#a)" d="M42.5 14.5C38.9 7.6 31.8 3.3 24.1 3.3c-2.7 0-5.4.5-7.9 1.6l-1.3-3.1C17.8.6 20.9 0 24.1 0c9 0 17.2 5 21.4 12.9l-3 1.6Z"/>
  <path fill="#fff" d="M16.9 19c1.9 0 3.5 1 4.3 2.8l.1.1 3.3-1.1-.1-.2c-1.3-3.1-4.2-5-7.6-5-2.4 0-4.4.8-6 2.4-1.6 1.6-2.4 3.6-2.4 5.9 0 2.3.8 4.3 2.4 5.9 1.6 1.6 3.6 2.4 6 2.4 3.4 0 6.3-1.9 7.6-5l.1-.2-3.3-1.1-.1.1c-.7 1.8-2.3 2.8-4.3 2.8-1.4 0-2.5-.5-3.4-1.4-.9-.9-1.4-2.1-1.4-3.5s.5-2.6 1.4-3.6c.9-.8 2-1.3 3.4-1.3Z"/>
  <path fill="#fff" d="m37.3 16.1-4.6 11.8L28 16.1h-3.8l6.6 16.1L26 43.4l3.3.7 11.5-28h-3.5Z"/>
  <path fill="url(#b)" d="m26.6 42-.8 2c-.2.4-.5.7-.9.7h-.8c-9.6 0-18.1-6.8-20.2-16.1l-3.3.7c1.2 5.2 4.1 10 8.3 13.4C13.2 46.1 18.5 48 24 48h1c1.7-.1 3.3-1.1 3.9-2.7l1.1-2.6-3.4-.7Z"/>
  <defs>
    <linearGradient id="a" x1="21.567" x2="39.832" y1="-1.558" y2="17.963" gradientUnits="userSpaceOnUse">
      <stop offset=".094" stop-color="#fff"/>
      <stop offset=".988" stop-color="#fff" stop-opacity="0"/>
    </linearGradient>
    <linearGradient id="b" x1="-.255" x2="34.639" y1="34.916" y2="44.204" gradientUnits="userSpaceOnUse">
      <stop offset=".077" stop-color="#fff"/>
      <stop offset=".762" stop-color="#fff"/>
    </linearGradient>
  </defs>
</svg>
