<svg xmlns="http://www.w3.org/2000/svg" width="406" height="282" fill="none" viewBox="0 0 406 282">
  <path fill="#000" d="M230 111h42Zm-50 0h42Zm-49 0h42Zm-49 0h41Zm-50 0h42Zm50-46h41Zm49 0h42Zm49 0h42Zm0-46h42Z"/>
  <path stroke="#fff" stroke-width="38" d="M230 111h42m-92 0h42m-91 0h42m-91 0h41m-91 0h42m8-46h41m8 0h42m7 0h42m-42-46h42"/>
  <path fill="#fff" stroke="#fff" d="m316.074 56.71.05-.065c.224.13.547.32.956.569a75.71 75.71 0 0 1 3.542 2.307 90.815 90.815 0 0 1 11.033 8.966c8.211 7.838 16.872 19.24 18.85 33.581l.07.508.505-.082c18.409-2.986 32.07-.247 41.116 3.223 4.525 1.735 7.899 3.655 10.137 5.137a33.9 33.9 0 0 1 2.508 1.817c.261.209.459.377.594.495a32.183 32.183 0 0 1-.482 1.511 50.15 50.15 0 0 1-1.938 4.769c-1.828 3.935-4.802 9.139-9.386 14.219-9.153 10.143-24.755 19.824-50.591 17.836l-.36-.027-.14.334C307.625 235.6 233.823 281.5 135 281.5c-34.422 0-60.201-7.856-79.438-19.908-19.236-12.052-31.96-28.319-40.238-45.187-8.28-16.872-12.112-34.343-13.56-48.783-1.414-14.083-.556-25.239.626-30.122H277c15.097 0 25.174-4.028 31.224-7.053l.461-.23-.245-.454c-10.416-19.344-8.436-37.692-3.841-51.227 2.297-6.77 5.248-12.33 7.624-16.196a69.474 69.474 0 0 1 2.976-4.466c.373-.512.671-.902.875-1.164Z"/>
</svg>
