<svg xmlns="http://www.w3.org/2000/svg" width="40" height="40" fill="none" viewBox="0 0 40 40">
  <path fill="#fff" d="M0 4a4 4 0 0 1 4-4h32a4 4 0 0 1 4 4v32a4 4 0 0 1-4 4H4a4 4 0 0 1-4-4V4Z"/>
  <path fill="#1F1F1F" d="M36.726 30.46c-.292-1.825-1.483-3.357-5.007-4.787-1.225-.563-2.59-.966-2.997-1.894-.144-.54-.163-.844-.072-1.17.263-1.062 1.529-1.392 2.533-1.088.646.217 1.258.715 1.627 1.51 1.726-1.118 1.722-1.11 2.928-1.879-.441-.684-.677-1-.966-1.293-1.038-1.16-2.453-1.756-4.715-1.71-.392.049-.787.102-1.179.151-1.129.286-2.205.879-2.836 1.673-1.894 2.149-1.354 5.91.95 7.457 2.27 1.703 5.605 2.09 6.03 3.684.415 1.95-1.433 2.582-3.27 2.357-1.353-.28-2.106-.97-2.92-2.22-1.497.867-1.497.867-3.037 1.753.365.798.749 1.16 1.36 1.852 2.898 2.939 10.15 2.794 11.45-1.654.053-.153.403-1.172.121-2.742Zm-14.98-12.076h-3.742c0 3.232-.015 6.441-.015 9.673 0 2.057.106 3.943-.229 4.52-.547 1.138-1.965.997-2.612.777-.657-.324-.992-.784-1.38-1.434-.106-.186-.186-.33-.213-.342-1.015.62-2.027 1.243-3.042 1.863.506 1.038 1.251 1.94 2.206 2.525 1.426.855 3.342 1.118 5.346.657 1.304-.38 2.43-1.167 3.019-2.364.851-1.57.669-3.472.661-5.575.02-3.43 0-6.859 0-10.3Z"/>
</svg>
