<svg xmlns="http://www.w3.org/2000/svg" width="120" height="120" fill="none" viewBox="0 0 120 120">
  <path fill="#fff" d="M50.802.01C23.634 1.931 1.93 23.662.009 50.863a3.664 3.664 0 0 0 3.65 3.93H51.07a3.66 3.66 0 0 0 3.658-3.663V3.662A3.664 3.664 0 0 0 50.803.01h-.001Zm69.189 51.182C118.07 23.992 96.366 2.262 69.198.338a3.664 3.664 0 0 0-3.925 3.653v47.47a3.66 3.66 0 0 0 3.658 3.662h47.411a3.665 3.665 0 0 0 3.649-3.93Zm-5.611 12.66c-27.167 1.923-48.871 23.654-50.792 50.854a3.664 3.664 0 0 0 3.649 3.93h47.412a3.66 3.66 0 0 0 3.657-3.662v-47.47a3.664 3.664 0 0 0-3.925-3.652h-.001ZM.01 69.136c1.92 27.2 23.625 48.931 50.793 50.855a3.664 3.664 0 0 0 3.925-3.654v-47.47a3.66 3.66 0 0 0-3.658-3.662H3.659a3.664 3.664 0 0 0-3.649 3.93v.001Z"/>
</svg>
