<svg xmlns="http://www.w3.org/2000/svg" width="256" height="256" fill="none" viewBox="0 0 256 256">
  <path fill="#fff" fill-rule="evenodd" d="M0 0h256v256H0V0Zm58.923 79.998a6.661 6.661 0 0 1 2.168 5.619v76.012a8.747 8.747 0 0 1-2.328 7.545l-18.066 21.913v2.889h51.225v-2.889l-18.065-21.913a9.069 9.069 0 0 1-2.49-7.545V95.891l44.963 98.085h5.219l38.619-98.085v78.179c0 2.087 0 2.489-1.365 3.853l-13.89 13.485v2.89h67.443v-2.89l-13.409-13.164a4.014 4.014 0 0 1-1.525-3.853v-96.72a4.014 4.014 0 0 1 1.525-3.854l13.73-13.163v-2.89h-47.531l-33.882 84.521-38.54-84.52H42.866v2.889l16.058 19.344Z" clip-rule="evenodd"/>
</svg>
