<svg xmlns="http://www.w3.org/2000/svg" width="947" height="943" fill="none" viewBox="0 0 947 943">
  <path fill="#fff" fill-rule="evenodd" d="M557.547.025c-6.839 0-13.189 1.466-19.05 3.42 12.456 8.303 19.294 19.294 22.713 31.75.245 1.71.733 2.93.978 4.64.244 1.465.488 2.93.488 4.396.977 21.492-5.618 24.179-10.258 36.879-7.083 16.364-5.129 33.948 3.419 48.114.733 1.709 1.71 3.663 2.931 5.373-9.281-61.79 42.252-71.072 51.777-90.366.733-16.852-13.188-28.087-24.179-35.902-10.502-6.35-20.027-8.304-28.819-8.304Zm77.665 13.921c-.977 5.618-.244 4.152-.488 7.083-.244 1.954-.244 4.396-.488 6.35-.488 1.954-.977 3.908-1.709 5.862-.488 1.953-1.222 3.907-1.954 5.861-.978 1.954-1.71 3.664-2.687 5.617-.732.978-1.221 1.954-1.954 2.931l-1.465 2.198c-1.221 1.71-2.442 3.42-3.663 4.885-1.466 1.465-2.687 3.175-4.397 4.396v.245c-1.465 1.22-2.93 2.686-4.64 3.907-5.129 3.908-10.99 6.839-16.364 10.502-1.709 1.221-3.419 2.198-4.884 3.664a35.72 35.72 0 0 0-4.641 3.908c-1.709 1.465-2.93 2.93-4.396 4.64-1.221 1.465-2.686 3.175-3.663 4.885-1.221 1.71-2.442 3.419-3.419 5.129-.978 1.953-1.71 3.663-2.687 5.617-.733 1.954-1.465 3.663-1.954 5.617-.733 2.198-1.221 4.152-1.709 6.106-.245.977-.245 2.198-.489 3.175-.245.977-.244 1.954-.488 2.931 0 1.954-.244 4.152-.244 6.105 0 1.466 0 2.931.244 4.397 0 1.953.245 3.907.733 6.105.245 1.954.733 3.908 1.221 5.862.733 1.954 1.221 3.908 1.954 5.861.488 1.222 1.221 2.443 1.71 3.42l-56.174-21.737c-9.525-2.686-18.805-5.129-28.33-7.327l-15.387-3.663a453.255 453.255 0 0 0-44.45-6.594c-.488 0-.733-.245-1.221-.245a436.796 436.796 0 0 0-43.718-2.198c-10.746 0-21.492.488-31.994 1.221-14.898.977-29.796 2.931-44.694 5.373-3.664.488-7.327 1.221-10.991 1.954-7.571 1.465-14.898 3.175-21.981 4.885l-10.99 2.93c-3.664 1.466-7.083 3.175-10.502 4.641l-8.06 3.663c-.488.245-.977.245-1.221.488-2.442 1.222-4.64 2.198-6.838 3.42-.733.244-1.222.488-1.71.732-2.686 1.221-5.373 2.687-7.571 3.908-1.71.733-3.419 1.71-4.885 2.442-.732.488-1.709.978-2.198 1.222-2.198 1.221-4.396 2.442-6.35 3.663-2.198 1.221-4.152 2.442-5.861 3.663-1.71 1.222-3.42 2.198-4.885 3.42-.245.244-.488.244-.733.488-1.465.977-3.175 2.198-4.64 3.419l-.488.488-3.664 2.931c-.488.244-.977.732-1.465.977-1.221.977-2.442 2.198-3.663 3.175-.245.488-.733.733-.978.978-1.465 1.465-2.931 2.686-4.396 4.151-.245 0-.245.245-.488.488-1.465 1.222-2.931 2.687-4.396 4.152-.245.245-.245.489-.488.489-1.221 1.221-2.443 2.442-3.664 3.907-.488.488-1.221.977-1.709 1.466-1.222 1.465-2.687 2.93-4.152 4.396-.245.488-.733.732-.978 1.221-1.953 1.954-3.663 3.908-5.617 5.862l-.733.732c-3.907 4.152-8.059 8.304-12.455 11.968-4.397 3.907-9.037 7.571-13.677 10.746a184.562 184.562 0 0 1-14.654 9.28 148.755 148.755 0 0 1-15.387 7.327c-5.129 2.199-10.502 4.152-15.875 5.862-10.258 2.198-20.76 6.35-29.796 7.083-1.954 0-4.152.488-6.106.732-2.198.488-4.152.978-6.106 1.466l-5.861 2.198c-1.954.733-3.908 1.71-5.862 2.686-1.71 1.222-3.663 2.199-5.373 3.42a39.793 39.793 0 0 0-4.885 4.152c-1.71 1.221-3.419 2.93-4.884 4.396-1.466 1.709-2.931 3.175-4.152 4.884-1.221 1.954-2.687 3.664-3.664 5.618-1.22 1.709-2.442 3.663-3.419 5.617-.977 2.198-1.954 4.152-2.686 6.35-.733 1.954-1.466 4.152-2.199 6.35-.488 1.954-.977 3.908-1.22 5.861 0 .245-.245.489-.245.733-.488 2.198-.488 5.129-.733 6.595-.245 1.709-.488 3.175-.488 4.884 0 .978 0 2.198.245 3.175.244 1.71.488 3.175.977 4.641.488 1.465.977 2.93 1.71 4.396v.244c.732 1.466 1.71 2.931 2.686 4.397.977 1.465 1.954 2.93 3.175 4.396 1.221 1.221 2.687 2.686 4.152 3.907a35.656 35.656 0 0 0 4.64 3.908c5.862 5.129 7.327 6.839 14.898 10.746 1.222.733 2.443 1.222 3.908 1.954.245 0 .488.245.733.245 0 .488 0 .733.245 1.221.244 1.954.732 3.908 1.22 5.862.489 2.198 1.222 4.152 1.955 5.861.732 1.466 1.22 2.931 1.954 4.396.244.488.488.978.732 1.221.977 1.954 1.954 3.664 2.93 5.374l3.664 5.128c1.221 1.466 2.687 3.175 4.152 4.641 1.466 1.465 2.931 2.686 4.64 4.152 0 0 .245.245.489.245 1.465 1.221 2.93 2.442 4.396 3.419 1.71 1.221 3.42 2.198 5.373 3.175 1.71.977 3.664 1.954 5.617 2.686 1.466.733 3.175 1.222 4.885 1.71.245.245.488.245.977.488.978.245 2.198.488 3.175.733-.732 13.188-.977 25.644.978 30.04 2.198 4.885 12.944-10.013 23.69-27.109-1.465 16.852-2.442 36.634 0 42.496 2.687 6.106 17.34-12.944 30.041-33.948 173.16-40.054 331.177 79.619 347.785 248.627-3.175-26.377-35.658-41.031-50.556-37.367-7.327 18.073-19.782 41.275-39.809 55.685 1.709-16.12.977-32.727-2.443-48.847-5.373 22.47-15.875 43.474-30.285 61.547-23.202 1.709-46.404-9.525-58.615-26.377-.977-.733-1.221-2.198-1.954-3.175-.733-1.71-1.465-3.419-1.954-5.129-.733-1.71-1.221-3.419-1.465-5.129-.245-1.71-.245-3.419-.245-5.373v-3.664c.245-1.709.733-3.419 1.221-5.128.488-1.71.978-3.42 1.71-5.129.977-1.71 1.709-3.42 2.931-5.129 4.152-11.723 4.152-21.248-3.42-26.866-1.465-.977-2.93-1.709-4.64-2.442-.977-.245-2.198-.733-3.175-.977-.733-.245-1.221-.488-1.954-.733-1.709-.488-3.419-.977-5.129-1.221a18.606 18.606 0 0 0-5.129-.733c-1.709-.245-3.663-.488-5.373-.488-1.221 0-2.442.245-3.663.245-1.954 0-3.664.245-5.373.732-1.71.245-3.419.488-5.129.978-1.71.488-3.419.977-5.129 1.709-1.71.733-3.175 1.466-4.885 2.198-1.465.733-2.93 1.71-4.64 2.443-56.906 37.123-22.958 124.069 15.875 149.225-14.654 2.687-29.552 5.862-33.704 9.037l-.488.488c10.502 6.35 21.492 11.723 32.971 16.363 15.631 5.129 32.239 9.769 39.566 11.723v.245c20.271 4.152 40.787 5.617 61.546 4.396 108.195-7.571 196.851-89.877 212.97-198.316.488 2.198.977 4.152 1.466 6.35.732 4.396 1.709 9.037 2.198 13.677v.245c.488 2.198.732 4.396.977 6.35v.977c.245 2.198.488 4.396.488 6.35.244 2.687.488 5.373.488 8.06v3.908c0 1.221.245 2.686.245 3.907 0 1.466-.245 2.931-.245 4.397v3.419c0 1.709-.245 3.175-.245 4.884 0 .978 0 1.954-.244 3.175 0 1.71-.245 3.42-.245 5.373-.245.733-.245 1.466-.245 2.199-.244 1.953-.488 3.663-.733 5.617 0 .733 0 1.465-.244 2.198-.245 2.442-.733 4.64-.977 7.083v.489c-.488 2.198-.978 4.641-1.466 6.839v.732l-1.465 6.594c0 .245-.245.733-.245.978-.488 2.198-.977 4.396-1.709 6.594v.733c-.733 2.442-1.466 4.64-1.954 6.838-.245.245-.245.488-.245.488l-2.198 7.327c-.977 2.443-1.709 4.641-2.686 7.083-.977 2.442-1.71 4.885-2.687 7.083-.977 2.442-1.954 4.64-2.931 7.082h-.245c-.977 2.198-1.954 4.641-3.175 6.839-.244.733-.488 1.221-.732 1.709-.245.245-.245.489-.488.733-15.875 31.994-39.322 60.081-68.629 82.062-1.954 1.221-3.908 2.687-5.862 4.152-.488.488-1.221.733-1.71 1.221-1.709 1.221-3.419 2.442-5.373 3.664l.733 1.465h.245l10.257-1.465h.245c6.35-.978 12.7-2.199 19.05-3.42 1.709-.245 3.663-.732 5.373-1.221 1.221-.245 2.198-.488 3.419-.733 1.71-.245 3.419-.732 5.129-.977 1.466-.488 2.931-.733 4.396-1.221 24.423-5.862 48.114-13.921 70.827-23.446-38.832 52.998-90.854 95.738-151.667 123.825 28.086-1.954 56.173-6.594 83.283-14.41 98.425-29.063 181.219-95.25 230.798-184.394-10.013 56.417-32.482 110.148-65.698 157.041 23.691-15.631 45.427-33.705 65.21-54.22 54.708-57.15 90.61-129.687 102.821-207.597 8.304 38.589 10.747 78.399 7.083 117.72 176.336-245.941 14.654-500.919-52.998-568.082-.245-.489-.488-.733-.488-1.222-.245.245-.245.245-.245.488 0-.244 0-.244-.245-.488 0 2.931-.244 5.862-.488 8.793-.733 5.617-1.465 10.99-2.442 16.363-1.221 5.373-2.687 10.746-4.152 16.119-1.71 5.129-3.663 10.502-5.862 15.631-2.198 4.885-4.64 10.014-7.327 14.898-2.686 4.641-5.617 9.525-8.792 13.922-3.175 4.64-6.594 9.036-10.013 13.188-3.664 4.396-7.572 8.304-11.479 12.212-2.443 2.198-4.641 4.152-7.083 6.105-1.954 1.71-3.663 3.175-5.617 4.885-4.397 3.419-8.793 6.594-13.677 9.525-4.641 2.931-9.525 5.862-14.41 8.304-5.129 2.442-10.258 4.64-15.386 6.838-5.129 1.954-10.502 3.664-15.876 5.129-5.373 1.466-10.99 2.687-16.363 3.664-5.617.977-11.235 1.465-16.608 1.954-3.907.244-7.815.488-11.723.488-5.617 0-11.234-.488-16.608-.978-5.617-.488-11.234-1.221-16.607-2.442-5.618-.977-10.991-2.442-16.364-4.152h-.244c5.373-.488 10.746-.977 16.119-1.954a177.088 177.088 0 0 0 16.363-3.663c5.373-1.466 10.747-3.175 15.875-5.129 5.373-1.954 10.502-4.396 15.387-6.839 5.129-2.442 9.769-5.128 14.654-8.059 4.64-3.175 9.281-6.35 13.677-9.769a133.673 133.673 0 0 0 12.456-10.991c4.152-3.663 7.815-7.815 11.479-11.967a241.584 241.584 0 0 0 10.257-13.189c.488-.732.978-1.709 1.466-2.442 2.442-3.908 4.884-7.815 7.082-11.723 2.687-4.885 5.129-9.769 7.327-14.898 2.198-5.129 4.152-10.258 5.862-15.631 1.709-5.129 2.931-10.502 4.152-15.875.977-5.617 1.954-10.991 2.442-16.364.488-5.617.977-11.234.977-16.607 0-3.908-.245-7.816-.488-11.723-.488-5.618-1.221-10.991-1.954-16.364a177.088 177.088 0 0 0-3.663-16.363c-1.71-5.129-3.419-10.502-5.373-15.631-1.954-5.129-4.396-10.258-6.839-15.143-2.686-4.884-5.373-9.769-8.303-14.41-3.175-4.64-6.351-9.036-9.77-13.432-3.663-4.152-7.327-8.304-11.234-12.456-1.954-1.954-4.152-4.152-6.35-6.105a449.777 449.777 0 0 0-33.949-23.935 45.482 45.482 0 0 0-4.884-2.443c-8.06-5.128-15.631-7.816-23.203-10.259Z" clip-rule="evenodd"/>
</svg>
