<svg xmlns="http://www.w3.org/2000/svg" width="512" height="512" fill="none" viewBox="0 0 512 512">
  <path fill="#fff" d="M429.76 130.07 274.33 36.85a37.002 37.002 0 0 0-36.65 0L82.24 130.06A38.205 38.205 0 0 0 64 162.83V349a38.258 38.258 0 0 0 18.24 32.8L123 406.14l.23.13c20.58 10.53 28.46 10.53 37.59 10.53 32.14 0 52.11-20.8 52.11-54.29V182a8.507 8.507 0 0 0-8.42-8.58h-22.38a8.509 8.509 0 0 0-8.42 8.58v180.51a14.998 14.998 0 0 1-6.85 13.07c-5.9 3.6-14.47 2.84-24.14-2.15l-39.06-23.51a1.094 1.094 0 0 1-.48-.92V165.46a1.313 1.313 0 0 1 .59-1.06l151.84-93a.819.819 0 0 1 .73 0l151.93 93a1.344 1.344 0 0 1 .55 1.1V349a1.287 1.287 0 0 1-.45 1l-152.06 90.65c-.259.09-.541.09-.8 0l-38.83-23.06a7.794 7.794 0 0 0-7.83-.41l-.34.2c-10.72 6.35-13.6 8-23.54 11.62-1.62.59-5.43 2-5.76 5.77-.33 3.77 3.29 6.45 6.51 8.32l51.9 31.87a35.671 35.671 0 0 0 18.3 5.07h.58a35.873 35.873 0 0 0 17.83-5.07l155.43-93.13A38.367 38.367 0 0 0 448 349V162.83a38.203 38.203 0 0 0-18.24-32.76Z"/>
  <path fill="#fff" d="M307.88 318.05c-37.29 0-45.24-10.42-47.6-27.24a8.435 8.435 0 0 0-2.75-5.187 8.435 8.435 0 0 0-5.47-2.133h-19.8a8.441 8.441 0 0 0-8.26 8.58c0 14.58 5.12 62.17 83.92 62.17 24.38 0 44.66-5.7 58.63-16.49 13.97-10.79 21.45-26.49 21.45-45.2 0-37.55-24.5-47.83-72.75-54.55-49.05-6.82-49.05-10.29-49.05-17.89 0-5.47 0-18.28 35.46-18.28 25.23 0 38.74 3.19 43.06 20a8.35 8.35 0 0 0 8.06 6.67h19.87a8.247 8.247 0 0 0 6.16-2.86 8.907 8.907 0 0 0 2.12-6.44c-2.57-35.55-28.56-53.58-79.24-53.58-46.06 0-73.55 20.75-73.55 55.5 0 38.1 28.49 48.87 71.29 53.33 50 5.17 50 12.71 50 19.37.03 10.38-4.28 24.23-41.55 24.23Z"/>
</svg>
