<svg xmlns="http://www.w3.org/2000/svg" width="800" height="800" fill="none" viewBox="0 0 800 800">
  <path fill="#fff" d="M641.656 282.375a544.73 544.73 0 0 0-24.14-7.625 440.408 440.408 0 0 0 3.718-16.5c18.282-88.906 6.328-160.531-34.468-184.11-39.063-22.624-103.125.954-167.75 57.329a509.076 509.076 0 0 0-18.672 17.187 365.712 365.712 0 0 0-12.5-11.5c-67.735-60.28-135.625-85.672-176.375-62.015-39.063 22.672-50.672 90-34.219 174.265a525.756 525.756 0 0 0 5.547 24.891c-9.61 2.734-18.891 5.656-27.766 8.75C75.719 310.781 25 354.266 25 399.359 25 445.953 79.438 492.672 162.141 521a437.008 437.008 0 0 0 20.312 6.359 465.324 465.324 0 0 0-5.891 26.829c-15.624 82.812-3.437 148.546 35.547 171.078 40.266 23.265 107.813-.641 173.657-58.297a404.09 404.09 0 0 0 15.625-14.453 476.423 476.423 0 0 0 20.312 18.531c63.75 54.969 126.703 77.172 165.625 54.578 40.235-23.344 53.313-93.969 36.328-179.891a431.914 431.914 0 0 0-4.5-20.093c4.75-1.407 9.401-2.86 13.953-4.36 85.938-28.547 141.922-74.703 141.922-121.875-.031-45.312-52.375-89.078-133.375-117.031ZM440.094 155.688c55.359-48.297 107.109-67.36 130.703-53.735 25.109 14.516 34.875 73.047 19.094 149.813a464.19 464.19 0 0 1-3.375 14.953 762.145 762.145 0 0 0-100.282-15.875 751.908 751.908 0 0 0-63.39-79.297 449.48 449.48 0 0 1 17.219-15.859h.031ZM246.453 437.891a943.013 943.013 0 0 0 21.266 38.89 916.483 916.483 0 0 0 23.547 38.61 680.287 680.287 0 0 1-69.125-11.141c6.625-21.437 14.781-43.703 24.312-66.359Zm0-75.516c-9.375-22.172-17.312-43.984-23.828-65.047 21.406-4.797 44.219-8.719 68-11.687a926.991 926.991 0 0 0-23 37.859 986.944 986.944 0 0 0-21.219 38.875h.047Zm17.031 37.766a911.916 911.916 0 0 1 31.907-60.594 905.726 905.726 0 0 1 36.359-58.016 907.703 907.703 0 0 1 68.297-2.578c23.109 0 46.125.891 68.422 2.594a973.689 973.689 0 0 1 36.14 57.812 1085.3 1085.3 0 0 1 32.329 60.313 980.758 980.758 0 0 1-32.25 60.844 1067.196 1067.196 0 0 1-35.938 58.187 984.052 984.052 0 0 1-68.75 2.422c-23.438 0-46.047-.734-67.906-2.156a908.232 908.232 0 0 1-36.656-58.266 905.058 905.058 0 0 1-32-60.562h.046Zm268.938 76.422a988.567 988.567 0 0 0 21.75-39.829 688.223 688.223 0 0 1 25.187 66.125 678.652 678.652 0 0 1-69.984 11.954 1111.995 1111.995 0 0 0 23.047-38.25Zm21.437-114.172a1045.676 1045.676 0 0 0-21.578-39.063 935.986 935.986 0 0 0-22.797-37.594c23.922 3.032 46.875 7.063 68.391 11.985a687.35 687.35 0 0 1-24.016 64.672ZM400.359 194.5a687.06 687.06 0 0 1 44.141 53.406 932.235 932.235 0 0 0-88.656 0c14.578-19.281 29.5-37.172 44.515-53.406Zm-172.765-91.594c25.094-14.562 80.578 6.25 139.062 58.235 3.735 3.328 7.5 6.812 11.25 10.422a767.756 767.756 0 0 0-63.844 79.234 779.81 779.81 0 0 0-100.093 15.625 483.992 483.992 0 0 1-5.157-23.156c-14.14-72.235-4.781-126.688 18.782-140.36Zm-36.578 393.516a374.843 374.843 0 0 1-18.516-5.797c-36.562-12.5-66.766-28.812-87.5-46.578-18.563-15.922-27.969-31.813-27.969-44.688 0-27.359 40.719-62.265 108.625-85.937a460.587 460.587 0 0 1 25.813-8.141 771.137 771.137 0 0 0 36.562 94.922 785.178 785.178 0 0 0-37.015 96.219Zm173.64 146.359c-29.109 25.5-58.265 43.578-83.969 52.688-23.093 8.172-41.484 8.406-52.593 1.984-23.657-13.672-33.5-66.469-20.078-137.281a486.922 486.922 0 0 1 5.468-25 751.264 751.264 0 0 0 101.079 14.672 783.036 783.036 0 0 0 64.375 79.687 344.296 344.296 0 0 1-14.282 13.25ZM401.25 606.5c-15.188-16.422-30.344-34.594-45.125-54.125 14.365.563 28.99.844 43.875.844 15.281 0 30.406-.328 45.312-1A686.197 686.197 0 0 1 401.25 606.5Zm194.563 44.672c-4.469 24.125-13.454 40.219-24.563 46.656-23.641 13.719-74.188-4.109-128.688-51.125-6.25-5.375-12.499-11.14-18.859-17.187a757.037 757.037 0 0 0 62.859-80 746.833 746.833 0 0 0 101.563-15.703A399.153 399.153 0 0 1 592.188 552c7.515 37.969 8.593 72.313 3.625 99.172ZM623 490.797a444.281 444.281 0 0 1-12.594 3.953 755.17 755.17 0 0 0-37.984-95.219 752.55 752.55 0 0 0 36.5-93.843c7.672 2.234 15.125 4.578 22.297 7.062 69.406 23.938 111.75 59.375 111.75 86.609 0 29.063-45.735 66.782-119.969 91.438Z"/>
  <path fill="#fff" d="M400 466.484a67.184 67.184 0 0 0 66.142-80.16 67.192 67.192 0 0 0-52.735-52.907 67.187 67.187 0 0 0-80.376 65.88 67.063 67.063 0 0 0 19.56 47.472A67.053 67.053 0 0 0 400 466.484Z"/>
</svg>
