<svg xmlns="http://www.w3.org/2000/svg" width="40" height="40" fill="none" viewBox="0 0 40 40">
  <path fill="#fff" d="M36.875 0H3.125A3.125 3.125 0 0 0 0 3.125v33.75C0 38.601 1.4 40 3.125 40h33.75C38.601 40 40 38.6 40 36.875V3.125C40 1.399 38.6 0 36.875 0Z"/>
  <path fill="#1F1F1F" fill-rule="evenodd" d="M23.518 31.324v4.316c.702.36 1.532.63 2.49.81.959.179 1.969.269 3.03.269 1.036 0 2.019-.1 2.95-.297.931-.198 1.748-.524 2.45-.978a4.985 4.985 0 0 0 1.667-1.78c.41-.733.614-1.638.614-2.717 0-.782-.117-1.468-.351-2.057a4.804 4.804 0 0 0-1.013-1.571c-.44-.459-.97-.87-1.585-1.234a17.01 17.01 0 0 0-2.086-1.032 26.32 26.32 0 0 1-1.525-.68 7.719 7.719 0 0 1-1.147-.675 2.937 2.937 0 0 1-.729-.729 1.531 1.531 0 0 1-.256-.87c0-.296.076-.563.229-.802a1.98 1.98 0 0 1 .648-.613 3.46 3.46 0 0 1 1.026-.398 5.952 5.952 0 0 1 1.35-.142 8.992 8.992 0 0 1 2.349.33c.404.113.797.255 1.18.425.382.171.736.37 1.06.594V17.46a10.547 10.547 0 0 0-2.153-.56 17.546 17.546 0 0 0-2.68-.182c-1.025 0-1.997.11-2.915.33-.918.22-1.725.564-2.423 1.032a5.158 5.158 0 0 0-1.653 1.787c-.405.724-.608 1.589-.608 2.596 0 1.286.372 2.382 1.114 3.29.742.909 1.87 1.677 3.381 2.307.594.242 1.147.48 1.66.715.513.233.956.476 1.33.728.373.251.668.525.884.822.216.297.324.634.324 1.012 0 .278-.068.537-.203.775s-.34.445-.614.62a3.368 3.368 0 0 1-1.026.412 6.16 6.16 0 0 1-1.437.148 8.298 8.298 0 0 1-5.331-1.97Zm-7.193-10.74h5.55v-3.553H6.406v3.554h5.523v15.821h4.396V20.585Z" clip-rule="evenodd"/>
</svg>
