<svg xmlns="http://www.w3.org/2000/svg" width="300" height="300" fill="none" viewBox="0 0 300 300">
  <path fill="#fff" d="M21.321 149.996c0 50.933 29.6 94.948 72.52 115.807L32.461 97.629a128.188 128.188 0 0 0-11.14 52.367Zm215.541-6.493c0-15.903-5.712-26.916-10.611-35.488-6.523-10.599-12.637-19.575-12.637-30.174 0-11.829 8.971-22.84 21.608-22.84.57 0 1.111.072 1.667.104-22.893-20.974-53.393-33.78-86.893-33.78-44.953 0-84.503 23.065-107.51 58 3.018.09 5.863.154 8.28.154 13.459 0 34.293-1.633 34.293-1.633 6.936-.41 7.754 9.779.825 10.599 0 0-6.97.82-14.727 1.227l46.858 139.377 28.159-84.454-20.047-54.928a234.462 234.462 0 0 1-13.494-1.227c-6.934-.406-6.121-11.008.813-10.6 0 0 21.25 1.634 33.894 1.634 13.456 0 34.293-1.633 34.293-1.633 6.941-.41 7.756 9.779.825 10.6 0 0-6.986.82-14.728 1.226l46.501 138.322 12.835-42.889c5.563-17.798 9.796-30.581 9.796-41.597Z"/>
  <path fill="#fff" d="m152.254 161.252-38.607 112.185a128.655 128.655 0 0 0 36.349 5.242 128.52 128.52 0 0 0 42.73-7.294 11.3 11.3 0 0 1-.915-1.773l-39.557-108.36Zm110.65-72.991a98.79 98.79 0 0 1 .866 13.232c0 13.057-2.438 27.736-9.784 46.089l-39.304 113.64c38.254-22.308 63.985-63.753 63.985-111.223.002-22.372-5.712-43.409-15.763-61.738Z"/>
  <path fill="#fff" d="M149.996.005C67.29.005 0 67.29 0 149.996c0 82.716 67.29 149.999 149.996 149.999C232.7 299.995 300 232.712 300 149.996 299.998 67.29 232.7.005 149.996.005Zm0 293.115c-78.913 0-143.118-64.206-143.118-143.124C6.878 71.083 71.08 6.883 149.996 6.883c78.911 0 143.112 64.2 143.112 143.113 0 78.918-64.201 143.124-143.112 143.124Z"/>
</svg>
